<svg width="15" height="15" viewBox="0 0 15 15" fill="none" xmlns="http://www.w3.org/2000/svg">
<path d="M4.49678 2.49943V3.49871H13.99V5.47683L12.8814 8.99478H4.18238L2.93327 0H0V0.999284H2.06315L3.31225 9.99406H13.6142L14.9893 5.63053V2.49943H4.49678Z" fill="white"/>
<path d="M5.02713 11.0029C4.49726 11.0035 3.98927 11.2142 3.6146 11.5889C3.23992 11.9636 3.02917 12.4716 3.02856 13.0014C3.02856 13.5315 3.23913 14.0398 3.61393 14.4146C3.98874 14.7894 4.49708 15 5.02713 15C5.55718 15 6.06553 14.7894 6.44033 14.4146C6.81514 14.0398 7.0257 13.5315 7.0257 13.0014C7.0251 12.4716 6.81435 11.9636 6.43968 11.5889C6.065 11.2142 5.557 11.0035 5.02713 11.0029ZM5.02713 14.0007C4.82949 14.0007 4.63629 13.9421 4.47196 13.8323C4.30763 13.7225 4.17955 13.5664 4.10391 13.3838C4.02828 13.2013 4.00849 13.0003 4.04705 12.8065C4.08561 12.6126 4.18078 12.4346 4.32053 12.2948C4.46028 12.1551 4.63834 12.0599 4.83218 12.0214C5.02602 11.9828 5.22695 12.0026 5.40954 12.0782C5.59214 12.1539 5.7482 12.2819 5.85801 12.4463C5.96781 12.6106 6.02642 12.8038 6.02642 13.0014C6.0261 13.2664 5.92072 13.5204 5.73339 13.7077C5.54605 13.895 5.29206 14.0004 5.02713 14.0007Z" fill="white"/>
<path d="M12.0222 11.0029C11.4923 11.0035 10.9843 11.2142 10.6096 11.5889C10.235 11.9636 10.0242 12.4716 10.0236 13.0014C10.0236 13.5315 10.2342 14.0398 10.609 14.4146C10.9838 14.7894 11.4921 15 12.0222 15C12.5522 15 13.0606 14.7894 13.4354 14.4146C13.8102 14.0398 14.0207 13.5315 14.0207 13.0014C14.0201 12.4716 13.8094 11.9636 13.4347 11.5889C13.06 11.2142 12.552 11.0035 12.0222 11.0029ZM12.0222 14.0007C11.8245 14.0007 11.6313 13.9421 11.467 13.8323C11.3027 13.7225 11.1746 13.5664 11.0989 13.3838C11.0233 13.2013 11.0035 13.0003 11.0421 12.8065C11.0806 12.6126 11.1758 12.4346 11.3156 12.2948C11.4553 12.1551 11.6334 12.0599 11.8272 12.0214C12.021 11.9828 12.222 12.0026 12.4046 12.0782C12.5872 12.1539 12.7432 12.2819 12.853 12.4463C12.9628 12.6106 13.0214 12.8038 13.0214 13.0014C13.0211 13.2664 12.9157 13.5204 12.7284 13.7077C12.5411 13.895 12.2871 14.0004 12.0222 14.0007Z" fill="white"/>
</svg>
