<svg width="15" height="15" viewBox="0 0 15 15" fill="none" xmlns="http://www.w3.org/2000/svg">
<path fill-rule="evenodd" clip-rule="evenodd" d="M7.5 8.82626L10.8144 12.1406C10.9902 12.3165 11.2288 12.4153 11.4775 12.4153C11.7262 12.4153 11.9648 12.3165 12.1406 12.1406C12.3165 11.9648 12.4153 11.7262 12.4153 11.4775C12.4153 11.2288 12.3165 10.9903 12.1406 10.8144L8.825 7.50001L12.14 4.18563C12.227 4.09855 12.2961 3.99518 12.3432 3.88141C12.3903 3.76765 12.4145 3.64572 12.4145 3.5226C12.4144 3.39947 12.3901 3.27756 12.343 3.16382C12.2959 3.05008 12.2268 2.94674 12.1397 2.8597C12.0526 2.77265 11.9492 2.70362 11.8355 2.65653C11.7217 2.60943 11.5998 2.58521 11.4767 2.58524C11.3535 2.58527 11.2316 2.60955 11.1179 2.65669C11.0041 2.70384 10.9008 2.77293 10.8137 2.86001L7.5 6.17438L4.18562 2.86001C4.09918 2.77043 3.99577 2.69896 3.88141 2.64977C3.76706 2.60059 3.64405 2.57467 3.51957 2.57353C3.39509 2.57239 3.27163 2.59605 3.15639 2.64313C3.04116 2.69022 2.93645 2.75978 2.84839 2.84776C2.76032 2.93574 2.69066 3.04038 2.64347 3.15558C2.59627 3.27077 2.5725 3.39421 2.57352 3.51869C2.57454 3.64317 2.60034 3.7662 2.64942 3.8806C2.6985 3.995 2.76987 4.09848 2.85937 4.18501L6.175 7.50001L2.86 10.815C2.7705 10.9015 2.69913 11.005 2.65005 11.1194C2.60097 11.2338 2.57517 11.3568 2.57414 11.4813C2.57312 11.6058 2.5969 11.7292 2.64409 11.8444C2.69128 11.9596 2.76095 12.0643 2.84901 12.1523C2.93708 12.2402 3.04178 12.3098 3.15702 12.3569C3.27226 12.404 3.39572 12.4276 3.5202 12.4265C3.64468 12.4253 3.76768 12.3994 3.88204 12.3502C3.99639 12.3011 4.09981 12.2296 4.18625 12.14L7.5 8.82626Z" fill="white"/>
</svg>
