<svg width="218" height="35" viewBox="0 0 218 35" fill="none" xmlns="http://www.w3.org/2000/svg">
<path d="M13 13C16.68 13 19.6667 10.32 19.6667 7C19.6667 3.68 16.68 1 13 1V13Z" stroke="white" stroke-width="2" stroke-linecap="round"/>
<path d="M13 13C13 16.68 15.68 19.6667 19 19.6667C22.32 19.6667 25 16.68 25 13H13Z" stroke="white" stroke-width="2" stroke-linecap="round"/>
<path d="M13 13C9.32004 13 6.33337 15.68 6.33337 19C6.33337 22.32 9.32004 25 13 25V13Z" stroke="white" stroke-width="2" stroke-linecap="round"/>
<path d="M13 13C13 9.31999 10.32 6.33333 7 6.33333C3.68 6.33333 1 9.31999 1 13H13Z" stroke="white" stroke-width="2" stroke-linecap="round"/>
<path d="M36.392 16.608H40.976C42.08 16.608 42.904 16.816 43.448 17.232C44.12 17.744 44.456 18.424 44.456 19.272C44.456 19.72 44.328 20.144 44.072 20.544C43.832 20.928 43.48 21.216 43.016 21.408C43.528 21.504 43.984 21.728 44.384 22.08C44.912 22.56 45.176 23.208 45.176 24.024C45.176 25 44.808 25.768 44.072 26.328C43.464 26.776 42.688 27 41.744 27H36.392V16.608ZM39.32 20.736H40.664C40.968 20.736 41.224 20.672 41.432 20.544C41.688 20.384 41.816 20.144 41.816 19.824C41.816 19.488 41.704 19.24 41.48 19.08C41.32 18.968 41.032 18.912 40.616 18.912H39.32V20.736ZM39.32 24.696H40.688C41.184 24.696 41.544 24.608 41.768 24.432C42.024 24.24 42.152 23.96 42.152 23.592C42.152 23.256 42.024 23.008 41.768 22.848C41.544 22.688 41.208 22.608 40.76 22.608H39.32V24.696ZM47.3373 16.608H50.2653V23.016L55.0653 16.608H57.9933V27H55.0653V20.592L50.2653 27H47.3373V16.608ZM60.767 27V16.608H63.695V20.28H67.775V16.608H70.703V27H67.775V22.776H63.695V27H60.767ZM73.4936 27V16.608H76.4216V20.28H80.5016V16.608H83.4296V27H80.5016V22.776H76.4216V27H73.4936ZM94.1881 17.952V16.608H97.1161V27H94.1881V25.656C93.4041 26.776 92.3401 27.336 90.9961 27.336C89.4281 27.336 88.1481 26.8 87.1561 25.728C86.1801 24.656 85.6921 23.344 85.6921 21.792C85.6921 20.224 86.1721 18.912 87.1321 17.856C88.0921 16.8 89.3321 16.272 90.8521 16.272C92.3561 16.272 93.4681 16.832 94.1881 17.952ZM93.6601 19.704C93.1161 19.144 92.4281 18.864 91.5961 18.864C90.7641 18.864 90.0761 19.144 89.5321 19.704C88.9881 20.264 88.7161 20.96 88.7161 21.792C88.7161 22.624 88.9881 23.328 89.5321 23.904C90.0761 24.464 90.7641 24.744 91.5961 24.744C92.4281 24.744 93.1161 24.464 93.6601 23.904C94.2041 23.328 94.4761 22.624 94.4761 21.792C94.4761 20.96 94.2041 20.264 93.6601 19.704ZM98.9956 27L102.068 23.112C101.396 23.016 100.836 22.744 100.388 22.296C99.8436 21.752 99.5716 21.016 99.5716 20.088C99.5716 19.016 99.9876 18.144 100.82 17.472C101.556 16.896 102.628 16.608 104.036 16.608H108.164V27H105.236V23.352H104.9L102.356 27H98.9956ZM105.236 21.24V18.912H103.964C103.516 18.912 103.188 19.008 102.98 19.2C102.724 19.44 102.596 19.744 102.596 20.112C102.596 20.496 102.724 20.784 102.98 20.976C103.204 21.152 103.532 21.24 103.964 21.24H105.236ZM115.444 27L117.34 16.32H119.5L122.356 22.584L125.212 16.32H127.372L129.268 27H126.34L125.476 21.36L122.788 27.216H121.924L119.236 21.36L118.372 27H115.444ZM138.451 23.664L141.139 24.096C141.027 24.384 140.875 24.672 140.683 24.96C140.507 25.232 140.227 25.576 139.843 25.992C139.459 26.392 138.939 26.72 138.283 26.976C137.627 27.216 136.875 27.336 136.027 27.336C134.395 27.336 133.067 26.848 132.043 25.872C130.955 24.848 130.411 23.496 130.411 21.816C130.411 20.152 130.939 18.792 131.995 17.736C132.987 16.76 134.291 16.272 135.907 16.272C137.667 16.272 139.019 16.84 139.963 17.976C140.795 18.968 141.211 20.328 141.211 22.056V22.296H133.435C133.435 23 133.603 23.584 133.939 24.048C134.419 24.704 135.115 25.032 136.027 25.032C137.115 25.032 137.923 24.576 138.451 23.664ZM133.531 20.424H138.451C138.339 19.752 138.043 19.24 137.563 18.888C137.099 18.52 136.571 18.336 135.979 18.336C135.403 18.336 134.875 18.52 134.395 18.888C133.931 19.256 133.643 19.768 133.531 20.424ZM152.694 16.608V27H149.766V19.104H146.934V22.92C146.934 24.264 146.606 25.288 145.95 25.992C145.294 26.728 144.358 27.096 143.142 27.096C142.822 27.096 142.534 27.064 142.278 27V24.504C142.47 24.536 142.622 24.552 142.734 24.552C143.262 24.552 143.662 24.384 143.934 24.048C144.174 23.76 144.294 23.32 144.294 22.728V16.608H152.694ZM155.478 16.608H158.406V20.304H160.686C161.902 20.304 162.83 20.656 163.47 21.36C163.998 21.92 164.262 22.664 164.262 23.592C164.262 24.728 163.894 25.608 163.158 26.232C162.566 26.744 161.79 27 160.83 27H155.478V16.608ZM158.406 24.696H159.774C160.27 24.696 160.63 24.608 160.854 24.432C161.11 24.24 161.238 23.96 161.238 23.592C161.238 23.256 161.11 23.008 160.854 22.848C160.63 22.688 160.294 22.608 159.846 22.608H158.406V24.696ZM166.283 27V16.608H169.211V20.28H173.291V16.608H176.219V27H173.291V22.776H169.211V27H166.283ZM179.009 16.608H181.937V23.016L186.737 16.608H189.665V27H186.737V20.592L181.937 27H179.009V16.608ZM192.439 27V16.608H195.367V24.504H199.255V16.608H202.183V24.504H203.863V30.024H201.223V27H192.439ZM213.415 17.952V16.608H216.343V27H213.415V25.656C212.631 26.776 211.567 27.336 210.223 27.336C208.655 27.336 207.375 26.8 206.383 25.728C205.407 24.656 204.919 23.344 204.919 21.792C204.919 20.224 205.399 18.912 206.359 17.856C207.319 16.8 208.559 16.272 210.079 16.272C211.583 16.272 212.695 16.832 213.415 17.952ZM212.887 19.704C212.343 19.144 211.655 18.864 210.823 18.864C209.991 18.864 209.303 19.144 208.759 19.704C208.215 20.264 207.943 20.96 207.943 21.792C207.943 22.624 208.215 23.328 208.759 23.904C209.303 24.464 209.991 24.744 210.823 24.744C211.655 24.744 212.343 24.464 212.887 23.904C213.431 23.328 213.703 22.624 213.703 21.792C213.703 20.96 213.431 20.264 212.887 19.704Z" fill="white"/>
</svg>
