<svg width="26" height="26" viewBox="0 0 26 26" fill="none" xmlns="http://www.w3.org/2000/svg">
<path d="M13 13C16.68 13 19.6667 10.32 19.6667 7C19.6667 3.68 16.68 1 13 1V13Z" stroke="#1B1918" stroke-width="2" stroke-linecap="round"/>
<path d="M13 13C13 16.68 15.68 19.6667 19 19.6667C22.32 19.6667 25 16.68 25 13H13Z" stroke="#1B1918" stroke-width="2" stroke-linecap="round"/>
<path d="M13 13C9.32004 13 6.33337 15.68 6.33337 19C6.33337 22.32 9.32004 25 13 25V13Z" stroke="#1B1918" stroke-width="2" stroke-linecap="round"/>
<path d="M13 13C13 9.32 10.32 6.33334 7 6.33334C3.68 6.33334 1 9.32 1 13H13Z" stroke="#1B1918" stroke-width="2" stroke-linecap="round"/>
</svg>
