<svg width="12" height="13" viewBox="0 0 12 13" fill="none" xmlns="http://www.w3.org/2000/svg">
<path d="M5.99839 3.16487C4.29477 3.16487 2.91986 4.65438 2.91986 6.5C2.91986 8.34562 4.29477 9.83513 5.99839 9.83513C7.70201 9.83513 9.07691 8.34562 9.07691 6.5C9.07691 4.65438 7.70201 3.16487 5.99839 3.16487ZM5.99839 8.66759C4.89666 8.66759 3.99757 7.69356 3.99757 6.5C3.99757 5.30644 4.89666 4.33241 5.99839 4.33241C7.10011 4.33241 7.9992 5.30644 7.9992 6.5C7.9992 7.69356 7.10011 8.66759 5.99839 8.66759ZM9.20299 2.251C8.80523 2.251 8.48402 2.59899 8.48402 3.02991C8.48402 3.46082 8.80523 3.80881 9.20299 3.80881C9.60075 3.80881 9.92197 3.46245 9.92197 3.02991C9.92208 2.92758 9.90357 2.82624 9.86748 2.73168C9.83139 2.63712 9.77843 2.55121 9.71165 2.47885C9.64486 2.4065 9.56556 2.34913 9.47827 2.31003C9.39099 2.27094 9.29744 2.25088 9.20299 2.251ZM11.9993 6.5C11.9993 5.60239 12.0068 4.71292 11.9603 3.81694C11.9138 2.77623 11.6946 1.85261 10.9922 1.0916C10.2882 0.328955 9.43715 0.0931713 8.47652 0.0427622C7.64797 -0.00764684 6.82693 0.000483674 5.99989 0.000483674C5.17134 0.000483674 4.3503 -0.00764684 3.52326 0.0427622C2.56263 0.0931713 1.71007 0.330582 1.00761 1.0916C0.303646 1.85424 0.0860026 2.77623 0.0394721 3.81694C-0.00705849 4.71454 0.00044646 5.60402 0.00044646 6.5C0.00044646 7.39598 -0.00705849 8.28708 0.0394721 9.18306C0.0860026 10.2238 0.305147 11.1474 1.00761 11.9084C1.71157 12.671 2.56263 12.9068 3.52326 12.9572C4.35181 13.0076 5.17284 12.9995 5.99989 12.9995C6.82843 12.9995 7.64947 13.0076 8.47652 12.9572C9.43715 12.9068 10.2897 12.6694 10.9922 11.9084C11.6961 11.1458 11.9138 10.2238 11.9603 9.18306C12.0083 8.28708 11.9993 7.39761 11.9993 6.5ZM10.6785 10.3343C10.5689 10.6303 10.4368 10.8514 10.2252 11.0791C10.0135 11.3084 9.81089 11.4515 9.53771 11.5702C8.74819 11.91 6.87346 11.8336 5.99839 11.8336C5.12331 11.8336 3.24708 11.91 2.45756 11.5718C2.18438 11.4531 1.98025 11.31 1.77011 11.0807C1.55847 10.8514 1.42638 10.6319 1.31681 10.336C1.00461 9.47901 1.07515 7.44802 1.07515 6.5C1.07515 5.55198 1.00461 3.51936 1.31681 2.66403C1.42638 2.36808 1.55847 2.14693 1.77011 1.91928C1.98175 1.69163 2.18438 1.5469 2.45756 1.4282C3.24708 1.08997 5.12331 1.1664 5.99839 1.1664C6.87346 1.1664 8.7497 1.08997 9.53921 1.4282C9.81239 1.5469 10.0165 1.69 10.2267 1.91928C10.4383 2.14856 10.5704 2.36808 10.68 2.66403C10.9922 3.51936 10.9216 5.55198 10.9216 6.5C10.9216 7.44802 10.9922 9.47901 10.6785 10.3343Z" fill="white"/>
</svg>
